<svg width="24" height="24" viewBox="0 0 24 24" fill="none" xmlns="http://www.w3.org/2000/svg">
<g id="arrow-forward-outline(1) 1" clip-path="url(#clip0_62_298)">
<g id="Layer 2">
<g id="arrow-forward">
<path id="Vector" d="M5 15H16.86L13.23 19.36C13.146 19.4611 13.0826 19.5778 13.0437 19.7034C13.0047 19.829 12.9909 19.961 13.003 20.0919C13.0274 20.3564 13.1558 20.6003 13.36 20.77C13.5642 20.9397 13.8275 21.0214 14.0919 20.997C14.3563 20.9726 14.6003 20.8442 14.77 20.64L19.77 14.64C19.8036 14.5923 19.8337 14.5421 19.86 14.49C19.86 14.44 19.91 14.41 19.93 14.36C19.9753 14.2453 19.9991 14.1233 20 14C19.9991 13.8767 19.9753 13.7547 19.93 13.64C19.93 13.59 19.88 13.56 19.86 13.51C19.8337 13.4579 19.8036 13.4077 19.77 13.36L14.77 7.36C14.676 7.24712 14.5582 7.15634 14.4252 7.09412C14.2921 7.0319 14.1469 6.99976 14 7C13.7663 6.99955 13.5399 7.08092 13.36 7.23C13.2587 7.31395 13.175 7.41705 13.1137 7.5334C13.0523 7.64975 13.0145 7.77705 13.0025 7.90803C12.9904 8.03901 13.0043 8.17108 13.0433 8.29668C13.0824 8.42229 13.1458 8.53895 13.23 8.64L16.86 13H5C4.73478 13 4.48043 13.1054 4.29289 13.2929C4.10536 13.4804 4 13.7348 4 14C4 14.2652 4.10536 14.5196 4.29289 14.7071C4.48043 14.8946 4.73478 15 5 15Z" fill="#FEFEFE"/>
</g>
</g>
</g>
<defs>
<clipPath id="clip0_62_298">
<rect width="24" height="24" fill="white"/>
</clipPath>
</defs>
</svg>
