<svg width="32" height="33" viewBox="0 0 32 33" fill="none" xmlns="http://www.w3.org/2000/svg">
<g id="hard-drive-outline 1" clip-path="url(#clip0_95_257)">
<g id="Layer 2">
<g id="hard-drive">
<path id="Vector" d="M27.72 15.62L23.2667 6.71334C22.9341 6.04715 22.4222 5.48701 21.7885 5.09598C21.1548 4.70494 20.4246 4.49854 19.68 4.50001H12.32C11.5754 4.49854 10.8452 4.70494 10.2115 5.09598C9.57788 5.48701 9.06594 6.04715 8.73335 6.71334L4.28002 15.62C4.09428 15.9927 3.99839 16.4036 4.00002 16.82V24.5C4.00002 25.5609 4.42145 26.5783 5.17159 27.3284C5.92174 28.0786 6.93915 28.5 8.00002 28.5H24C25.0609 28.5 26.0783 28.0786 26.8284 27.3284C27.5786 26.5783 28 25.5609 28 24.5V16.82C28.0016 16.4036 27.9058 15.9927 27.72 15.62ZM11.12 7.90001C11.2318 7.67809 11.4034 7.49184 11.6155 7.36227C11.8275 7.23269 12.0715 7.16495 12.32 7.16667H19.68C19.9285 7.16495 20.1725 7.23269 20.3846 7.36227C20.5966 7.49184 20.7682 7.67809 20.88 7.90001L24.5067 15.1667H7.49335L11.12 7.90001ZM24 25.8333H8.00002C7.6464 25.8333 7.30726 25.6929 7.05721 25.4428C6.80716 25.1928 6.66669 24.8536 6.66669 24.5V17.8333H25.3334V24.5C25.3334 24.8536 25.1929 25.1928 24.9428 25.4428C24.6928 25.6929 24.3536 25.8333 24 25.8333Z" fill="white"/>
<path id="Vector_2" d="M21.3334 20.5H16.0001C15.6465 20.5 15.3073 20.6405 15.0573 20.8905C14.8072 21.1406 14.6667 21.4797 14.6667 21.8333C14.6667 22.187 14.8072 22.5261 15.0573 22.7761C15.3073 23.0262 15.6465 23.1667 16.0001 23.1667H21.3334C21.687 23.1667 22.0262 23.0262 22.2762 22.7761C22.5263 22.5261 22.6667 22.187 22.6667 21.8333C22.6667 21.4797 22.5263 21.1406 22.2762 20.8905C22.0262 20.6405 21.687 20.5 21.3334 20.5Z" fill="white"/>
<path id="Vector_3" d="M10.6666 23.1667C11.403 23.1667 11.9999 22.5697 11.9999 21.8333C11.9999 21.097 11.403 20.5 10.6666 20.5C9.93021 20.5 9.33325 21.097 9.33325 21.8333C9.33325 22.5697 9.93021 23.1667 10.6666 23.1667Z" fill="white"/>
</g>
</g>
</g>
<defs>
<clipPath id="clip0_95_257">
<rect width="32" height="32" fill="white" transform="translate(0 0.5)"/>
</clipPath>
</defs>
</svg>
